<?xml version="1.0" encoding="UTF-8"?>
<svg version="1.1" xmlns="http://www.w3.org/2000/svg" width="200" height="200">
<path d="M0 0 C66 0 132 0 200 0 C200 66 200 132 200 200 C134 200 68 200 0 200 C0 134 0 68 0 0 Z " fill="#000100" transform="translate(0,0)"/>
<path d="M0 0 C0.62068359 0.23106445 1.24136719 0.46212891 1.88085938 0.70019531 C11.06243766 4.19270954 18.75804175 8.2264901 26 15 C26.77859375 15.69996094 27.5571875 16.39992188 28.359375 17.12109375 C41.86160472 29.8304073 50.69488659 48.20636141 51.35131836 66.796875 C51.50579249 79.94469415 49.2220099 92.32436095 43 104 C42.65453125 104.73089844 42.3090625 105.46179688 41.953125 106.21484375 C32.65430003 124.84618508 15.67079586 136.24548515 -3.38671875 143.16796875 C-20.55833765 148.6351658 -42.29809354 146.14324355 -58.18530273 138.05883789 C-77.66529154 127.47924837 -90.89461405 110.04180998 -97.4375 88.875 C-102.28511491 68.66611187 -98.48806166 48.64242926 -88.15039062 30.84570312 C-78.99235129 16.15241421 -63.52094422 3.43476472 -46.5625 -0.9375 C-44.71690589 -1.33392206 -42.86165441 -1.68757256 -41 -2 C-39.95070312 -2.18175781 -38.90140625 -2.36351563 -37.8203125 -2.55078125 C-25.46041657 -4.00414325 -11.75562607 -4.43193389 0 0 Z " fill="#39A452" transform="translate(124,29)"/>
<path d="M0 0 C0.969375 0.721875 1.93875 1.44375 2.9375 2.1875 C5.00817188 4.00718135 6.61364299 5.61238515 8 8 C7.505 9.485 7.505 9.485 7 11 C4.64599609 12.03979492 4.64599609 12.03979492 1.5234375 12.98046875 C0.38447021 13.33560547 -0.75449707 13.69074219 -1.92797852 14.05664062 C-3.75800415 14.61641602 -3.75800415 14.61641602 -5.625 15.1875 C-24.43191643 21.21751753 -42.06206624 28.73212706 -52 47 C-53.57220932 50.94218657 -54.86877587 54.91073017 -56 59 C-56.66 59 -57.32 59 -58 59 C-59.33203125 57.0234375 -59.33203125 57.0234375 -60.8125 54.375 C-67.68307649 42.10742911 -78.765541 34.31610285 -92 30 C-93.794375 29.38125 -93.794375 29.38125 -95.625 28.75 C-96.40875 28.5025 -97.1925 28.255 -98 28 C-101.00875941 45.56332731 -100.52354559 63.46542724 -90.62109375 78.7265625 C-83.55180549 88.64060049 -74.62589829 95.96601374 -63 100 C-62.34 100 -61.68 100 -61 100 C-60.72027344 99.22398437 -60.44054687 98.44796875 -60.15234375 97.6484375 C-53.21999612 78.96899276 -43.62862181 61.78466286 -29 48 C-28.34 48 -27.68 48 -27 48 C-27 47.34 -27 46.68 -27 46 C-25.6706543 44.79492187 -25.6706543 44.79492187 -23.82421875 43.46875 C-23.16099609 42.98792969 -22.49777344 42.50710937 -21.81445312 42.01171875 C-21.11255859 41.51285156 -20.41066406 41.01398438 -19.6875 40.5 C-18.99720703 40.00113281 -18.30691406 39.50226563 -17.59570312 38.98828125 C-14.75859558 36.94337088 -11.91033987 34.94022658 -9 33 C-7.515 33.495 -7.515 33.495 -6 34 C-7.05574219 34.73089844 -7.05574219 34.73089844 -8.1328125 35.4765625 C-33.06919595 53.38127646 -52.0134724 79.56848469 -58 110 C-71.20412929 109.41314981 -81.21621236 99.25764993 -89.75 90.125 C-93.63919979 85.52950685 -96.33778735 80.37312431 -99 75 C-99.5775 73.865625 -100.155 72.73125 -100.75 71.5625 C-106.65598108 54.73045392 -105.14855245 38.02735278 -98 22 C-95.95889127 18.06224458 -93.68458684 14.52575738 -91 11 C-90.50242187 10.31035156 -90.00484375 9.62070312 -89.4921875 8.91015625 C-79.77190314 -3.42337039 -64.38100781 -11.61978409 -49 -13.72265625 C-30.41869836 -15.44045888 -14.84328205 -11.40531598 0 0 Z " fill="#000301" transform="translate(140,50)"/>
<path d="M0 0 C0.33 0 0.66 0 1 0 C5.0072154 15.96370363 2.06463274 33.77564941 -6.125 47.8125 C-15.14668387 62.30904014 -28.35388953 72.07338647 -44.66796875 77.1640625 C-53.40071351 79.17432822 -65.43408395 79.85530535 -74 77 C-73.67 74.03 -73.34 71.06 -73 68 C-71.49373047 67.96132812 -71.49373047 67.96132812 -69.95703125 67.921875 C-51.8775988 67.25712459 -35.35550699 61.63421654 -22 49 C-9.26206455 35.20486748 -3.09149381 18.17195141 0 0 Z " fill="#020B03" transform="translate(161,85)"/>
<path d="M0 0 C0.28617188 0.62390625 0.57234375 1.2478125 0.8671875 1.890625 C2.19584023 4.36466802 3.68676698 5.45784465 6 7 C3.03 6.505 3.03 6.505 0 6 C-3.00875941 23.56332731 -2.52354559 41.46542724 7.37890625 56.7265625 C14.44819451 66.64060049 23.37410171 73.96601374 35 78 C35.66 78 36.32 78 37 78 C37.27972656 77.22398437 37.55945313 76.44796875 37.84765625 75.6484375 C44.78000388 56.96899276 54.37137819 39.78466286 69 26 C69.66 26 70.32 26 71 26 C71 25.34 71 24.68 71 24 C72.3293457 22.79492188 72.3293457 22.79492188 74.17578125 21.46875 C74.83900391 20.98792969 75.50222656 20.50710937 76.18554688 20.01171875 C76.88744141 19.51285156 77.58933594 19.01398438 78.3125 18.5 C79.00279297 18.00113281 79.69308594 17.50226563 80.40429688 16.98828125 C83.24140442 14.94337088 86.08966013 12.94022658 89 11 C89.99 11.33 90.98 11.66 92 12 C91.29617187 12.48726562 90.59234375 12.97453125 89.8671875 13.4765625 C64.93080405 31.38127646 45.9865276 57.56848469 40 88 C26.79587071 87.41314981 16.78378764 77.25764993 8.25 68.125 C4.36080021 63.52950685 1.66221265 58.37312431 -1 53 C-1.5775 51.865625 -2.155 50.73125 -2.75 49.5625 C-8.85433172 32.16515461 -6.47065085 16.63881646 0 0 Z " fill="#021304" transform="translate(42,72)"/>
<path d="M0 0 C0.28617188 0.62390625 0.57234375 1.2478125 0.8671875 1.890625 C2.19584023 4.36466802 3.68676698 5.45784465 6 7 C3.03 6.505 3.03 6.505 0 6 C-1.07914003 12.12369146 -1.14917353 18.1039305 -1.125 24.3125 C-1.12886719 25.29412109 -1.13273437 26.27574219 -1.13671875 27.28710938 C-1.12838495 33.58329235 -0.75417246 39.74930182 0 46 C-0.99 46.66 -1.98 47.32 -3 48 C-7.5865113 30.26548964 -6.57679017 16.91174616 0 0 Z " fill="#031C05" transform="translate(42,72)"/>
<path d="M0 0 C6.70880162 1.04481337 12.0564116 2.69800644 18 6 C18 6.33 18 6.66 18 7 C11.375 6.25 11.375 6.25 8 4 C5.67612053 3.60612212 3.34206251 3.26513915 1 3 C1.309375 4.423125 1.309375 4.423125 1.625 5.875 C1.74875 6.90625 1.8725 7.9375 2 9 C1.34 9.66 0.68 10.32 0 11 C-1.15744466 22.75482756 0.59695006 33.46405261 6 44 C5.67 44.99 5.34 45.98 5 47 C-1.87511523 38.58832606 -2.36593236 28.54207174 -2.375 18.125 C-2.37653076 17.13846436 -2.37806152 16.15192871 -2.37963867 15.13549805 C-2.29746739 9.72458801 -1.78134601 5.11602574 0 0 Z " fill="#429556" transform="translate(42,78)"/>
<path d="M0 0 C1.25941406 -0.020625 2.51882812 -0.04125 3.81640625 -0.0625 C10.73408736 -0.09153539 16.1039017 0.2487187 22.375 3.25 C18.92223957 4.40092014 17.45885201 4.02799383 13.9375 3.3125 C-3.76009241 0.18187896 -18.92920817 3.96610987 -34.625 12.25 C-34.955 11.59 -35.285 10.93 -35.625 10.25 C-34.985625 9.96125 -34.34625 9.6725 -33.6875 9.375 C-31.47293921 8.42176549 -31.47293921 8.42176549 -30.625 6.25 C-28.15003119 5.31202481 -25.71037593 4.47255004 -23.1875 3.6875 C-14.9029113 1.04904696 -8.80827322 0.03541014 0 0 Z " fill="#449656" transform="translate(98.625,34.75)"/>
<path d="M0 0 C0.99 0.33 1.98 0.66 3 1 C2.24976563 1.53367187 1.49953125 2.06734375 0.7265625 2.6171875 C-5.78190277 7.35508791 -11.34393759 12.12346361 -16.74609375 18.12890625 C-19 20 -19 20 -21.78515625 20.27734375 C-22.88150391 20.14005859 -22.88150391 20.14005859 -24 20 C-22.71937515 18.2925002 -21.38232443 16.62626404 -20 15 C-19.34 15 -18.68 15 -18 15 C-18 14.34 -18 13.68 -18 13 C-16.6706543 11.79492188 -16.6706543 11.79492188 -14.82421875 10.46875 C-14.16099609 9.98792969 -13.49777344 9.50710937 -12.81445312 9.01171875 C-12.11255859 8.51285156 -11.41066406 8.01398438 -10.6875 7.5 C-9.65206055 6.75169922 -9.65206055 6.75169922 -8.59570312 5.98828125 C-5.75859558 3.94337088 -2.91033987 1.94022658 0 0 Z " fill="#05320A" transform="translate(131,83)"/>
<path d="M0 0 C0 0.66 0 1.32 0 2 C-1.66666667 3.66666667 -3.33333333 5.33333333 -5 7 C-5.33 7.99 -5.66 8.98 -6 10 C-6.99 10 -7.98 10 -9 10 C-11.50079721 12.57657894 -12.86522444 14.53791236 -13.875 18 C-15.40449152 22.07864406 -17.53008361 23.43527919 -21 26 C-19.4839196 18.31382496 -8.97692386 0 0 0 Z " fill="#429558" transform="translate(54,42)"/>
<path d="M0 0 C0.28617188 0.62390625 0.57234375 1.2478125 0.8671875 1.890625 C2.19584023 4.36466802 3.68676698 5.45784465 6 7 C3.03 6.505 3.03 6.505 0 6 C-0.98554972 11.97127181 -1.31055351 17.89491458 -1.5625 23.9375 C-1.60568359 24.90751953 -1.64886719 25.87753906 -1.69335938 26.87695312 C-1.79862093 29.25118601 -1.90075707 31.62550921 -2 34 C-2.33 34 -2.66 34 -3 34 C-3 28.72 -3 23.44 -3 18 C-3.66 18 -4.32 18 -5 18 C-4.38388165 13.68068613 -3.35761422 9.74791225 -1.9375 5.625 C-1.57527344 4.56539063 -1.21304688 3.50578125 -0.83984375 2.4140625 C-0.56269531 1.61742188 -0.28554688 0.82078125 0 0 Z " fill="#123A17" transform="translate(42,72)"/>
<path d="M0 0 C0.66 0 1.32 0 2 0 C3.76462683 3.08809695 4 4.23312136 4 8 C4.66 8 5.32 8 6 8 C6.18175781 8.56589844 6.36351562 9.13179687 6.55078125 9.71484375 C6.80214844 10.44832031 7.05351563 11.18179688 7.3125 11.9375 C7.55613281 12.66839844 7.79976562 13.39929688 8.05078125 14.15234375 C8.91240441 16.35932024 8.91240441 16.35932024 12 17 C12.12375 17.78375 12.2475 18.5675 12.375 19.375 C12.79117993 22.14057822 12.79117993 22.14057822 15 24 C14.34 24.66 13.68 25.32 13 26 C0 6.47222222 0 6.47222222 0 0 Z " fill="#439455" transform="translate(29,122)"/>
<path d="M0 0 C0.66 0 1.32 0 2 0 C1.34375784 5.08587674 -0.88148169 9.39418426 -3 14 C-4.01292153 16.32801713 -5.00589699 18.66385793 -6 21 C-8.97 20.01 -11.94 19.02 -15 18 C-15 17.67 -15 17.34 -15 17 C-12.03 17.33 -9.06 17.66 -6 18 C-5.87625 17.30390625 -5.7525 16.6078125 -5.625 15.890625 C-4.94704416 12.75507922 -4.01879665 9.79140763 -3 6.75 C-2.649375 5.69296875 -2.29875 4.6359375 -1.9375 3.546875 C-1 1 -1 1 0 0 Z " fill="#459556" transform="translate(85,130)"/>
<path d="M0 0 C0.33 0.99 0.66 1.98 1 3 C10.57 3 20.14 3 30 3 C29.01 4.485 29.01 4.485 28 6 C25.84863281 6.37231445 25.84863281 6.37231445 23.203125 6.36328125 C22.2440625 6.36263672 21.285 6.36199219 20.296875 6.36132812 C19.29140625 6.34521484 18.2859375 6.32910156 17.25 6.3125 C15.765 6.31733398 15.765 6.31733398 14.25 6.32226562 C9.11963915 6.28454238 4.79517863 6.04692149 0 4 C0 2.68 0 1.36 0 0 Z " fill="#378045" transform="translate(86,159)"/>
<path d="M0 0 C0.95326172 -0.00773437 1.90652344 -0.01546875 2.88867188 -0.0234375 C3.79810547 -0.02085938 4.70753906 -0.01828125 5.64453125 -0.015625 C6.46928955 -0.01336914 7.29404785 -0.01111328 8.14379883 -0.00878906 C10.1875 0.25 10.1875 0.25 12.1875 2.25 C11.56818604 2.27505615 10.94887207 2.3001123 10.31079102 2.32592773 C7.45705112 2.44322658 4.60353559 2.56533586 1.75 2.6875 C0.28916992 2.74647461 0.28916992 2.74647461 -1.20117188 2.80664062 C-7.11311599 3.06368167 -12.93895997 3.52719621 -18.8125 4.25 C-17.8125 2.25 -17.8125 2.25 -14.92578125 1.140625 C-9.99572183 -0.14383493 -5.06335598 -0.04193255 0 0 Z " fill="#0E2D12" transform="translate(99.8125,23.75)"/>
<path d="M0 0 C0.33 0.66 0.66 1.32 1 2 C-2.93651233 6.83628658 -6.76748698 11.51165799 -12 15 C-12.34342449 16.33076989 -12.67619874 17.66431979 -13 19 C-14.4375 20.75 -14.4375 20.75 -16 22 C-16.66 22 -17.32 22 -18 22 C-16.61947454 17.89494546 -14.74883732 15.28876448 -11.8125 12.125 C-11.01585938 11.26390625 -10.21921875 10.4028125 -9.3984375 9.515625 C-6.32004237 6.28681969 -3.20047879 3.10786043 0 0 Z " fill="#439656" transform="translate(121,93)"/>
<path d="M0 0 C0.66 0.99 1.32 1.98 2 3 C0.48446596 6.47775179 -1.5773456 8.9557984 -4.125 11.75 C-5.21167969 12.94882813 -5.21167969 12.94882813 -6.3203125 14.171875 C-6.87460938 14.77515625 -7.42890625 15.3784375 -8 16 C-7.67 16.66 -7.34 17.32 -7 18 C-8.65 18 -10.3 18 -12 18 C-6 9 -6 9 0 0 Z " fill="#3F9354" transform="translate(158,126)"/>
<path d="M0 0 C0.33 0 0.66 0 1 0 C0.67 8.25 0.34 16.5 0 25 C-0.66 24.67 -1.32 24.34 -2 24 C-2.05819424 20.75007554 -2.09366116 17.50028565 -2.125 14.25 C-2.14175781 13.32960938 -2.15851562 12.40921875 -2.17578125 11.4609375 C-2.18222656 10.57148437 -2.18867188 9.68203125 -2.1953125 8.765625 C-2.20578613 7.94868164 -2.21625977 7.13173828 -2.22705078 6.29003906 C-1.97829916 3.78112482 -1.25700129 2.16604375 0 0 Z " fill="#418A52" transform="translate(27,86)"/>
<path d="M0 0 C0.33 1.32 0.66 2.64 1 4 C1.66 4 2.32 4 3 4 C1.68 9.61 0.36 15.22 -1 21 C-2.65 21 -4.3 21 -6 21 C-4.68 20.67 -3.36 20.34 -2 20 C-1.67 16.7 -1.34 13.4 -1 10 C-1.99 10.495 -1.99 10.495 -3 11 C-2.69078116 9.54096742 -2.37751201 8.08279278 -2.0625 6.625 C-1.88847656 5.81289062 -1.71445313 5.00078125 -1.53515625 4.1640625 C-1 2 -1 2 0 0 Z " fill="#07270B" transform="translate(83,139)"/>
<path d="M0 0 C0 0.33 0 0.66 0 1 C-1.07636719 1.03738281 -2.15273437 1.07476563 -3.26171875 1.11328125 C-11.58885123 1.46738296 -19.2857666 2.22189132 -27.36328125 4.4765625 C-30.02800165 5.00555885 -31.47164466 4.90083919 -34 4 C-24.73741842 -2.17505439 -10.70370545 -0.2015342 0 0 Z " fill="#479A5B" transform="translate(109,26)"/>
<path d="M0 0 C0.66 0.33 1.32 0.66 2 1 C-4.42201835 14.2293578 -4.42201835 14.2293578 -8 19 C-8.33 19 -8.66 19 -9 19 C-9 17.35 -9 15.7 -9 14 C-8.34 14 -7.68 14 -7 14 C-7 13.34 -7 12.68 -7 12 C-6.34 12 -5.68 12 -5 12 C-5 10.35 -5 8.7 -5 7 C-4.01 7 -3.02 7 -2 7 C-1.855625 6.401875 -1.71125 5.80375 -1.5625 5.1875 C-1.1127561 3.43849596 -0.57107659 1.71322977 0 0 Z " fill="#439458" transform="translate(153,109)"/>
<path d="M0 0 C0.66 0 1.32 0 2 0 C2.05407567 2.58361518 2.093707 5.16609255 2.125 7.75 C2.14175781 8.47960937 2.15851563 9.20921875 2.17578125 9.9609375 C2.21072239 13.8044624 2.17499684 16.74606772 0 20 C-0.19522373 17.41703983 -0.38144403 14.83395921 -0.5625 12.25 C-0.61857422 11.52039063 -0.67464844 10.79078125 -0.73242188 10.0390625 C-0.97709908 6.45046349 -0.99666259 3.44972775 0 0 Z " fill="#3F854F" transform="translate(173,90)"/>
<path d="M0 0 C-2.20831882 2.20831882 -3.49657876 2.6114458 -6.4375 3.5 C-9.46202775 4.41682554 -11.31457196 5.20971464 -14 7 C-14.99 7 -15.98 7 -17 7 C-17 6.34 -17 5.68 -17 5 C-14.9237343 3.96486753 -12.83868521 2.94733789 -10.75 1.9375 C-9.58984375 1.36902344 -8.4296875 0.80054687 -7.234375 0.21484375 C-4.09355667 -0.96485975 -3.00646952 -1.30230734 0 0 Z " fill="#429456" transform="translate(127,69)"/>
<path d="M0 0 C6.40742768 3.01778402 11.89698589 7.18739668 16 13 C13.5625 12.1875 13.5625 12.1875 11 11 C10.67 10.01 10.34 9.02 10 8 C8.67696283 7.6278958 7.34262065 7.29369827 6 7 C5.67 6.34 5.34 5.68 5 5 C4.154375 4.505 3.30875 4.01 2.4375 3.5 C1.633125 3.005 0.82875 2.51 0 2 C0 1.34 0 0.68 0 0 Z " fill="#449256" transform="translate(138,36)"/>
<path d="M0 0 C-0.79664062 0.32613281 -1.59328125 0.65226562 -2.4140625 0.98828125 C-9.09954291 3.69269132 -9.09954291 3.69269132 -15.5625 6.875 C-18 8 -18 8 -21 7 C-19.12762629 6.03654556 -17.2519701 5.07946898 -15.375 4.125 C-14.33085938 3.59132813 -13.28671875 3.05765625 -12.2109375 2.5078125 C-4.01818182 -1.33939394 -4.01818182 -1.33939394 0 0 Z " fill="#0D2F14" transform="translate(88,38)"/>
<path d="M0 0 C1.6154589 4.00437994 0.27082159 6.57954739 -1.3125 10.4375 C-1.76238281 11.54996094 -2.21226562 12.66242188 -2.67578125 13.80859375 C-3.11277344 14.86175781 -3.54976562 15.91492188 -4 17 C-4.66859389 18.66589448 -5.3360215 20.33226058 -6 22 C-7.26037224 18.14223903 -6.43013341 15.9722751 -4.8984375 12.234375 C-3.65245031 9.13565903 -2.6631407 5.96565068 -1.6484375 2.78515625 C-1 1 -1 1 0 0 Z " fill="#439153" transform="translate(172,114)"/>
<path d="M0 0 C1.9375 0.8125 1.9375 0.8125 4 2 C4.33 2.99 4.66 3.98 5 5 C5.99 5.66 6.98 6.32 8 7 C8 7.66 8 8.32 8 9 C9.32 9.33 10.64 9.66 12 10 C11.67 10.99 11.34 11.98 11 13 C9.37133456 11.56665422 7.74719006 10.12817021 6.125 8.6875 C5.22007813 7.88699219 4.31515625 7.08648437 3.3828125 6.26171875 C1 4 1 4 -1 1 C-0.67 0.67 -0.34 0.34 0 0 Z " fill="#418D52" transform="translate(44,147)"/>
<path d="M0 0 C0.28617188 0.62390625 0.57234375 1.2478125 0.8671875 1.890625 C2.19584023 4.36466802 3.68676698 5.45784465 6 7 C3.03 6.505 3.03 6.505 0 6 C-0.33 8.31 -0.66 10.62 -1 13 C-3 10 -3 10 -2.5390625 7.51953125 C-2.23742188 6.62621094 -1.93578125 5.73289062 -1.625 4.8125 C-1.32851563 3.91144531 -1.03203125 3.01039062 -0.7265625 2.08203125 C-0.48679688 1.39496094 -0.24703125 0.70789063 0 0 Z " fill="#062A0A" transform="translate(42,72)"/>
<path d="M0 0 C2.475 0.99 2.475 0.99 5 2 C5 2.99 5 3.98 5 5 C4.195625 5.28875 3.39125 5.5775 2.5625 5.875 C-0.1326468 6.73262568 -0.1326468 6.73262568 -1 9 C-0.67 6.03 -0.34 3.06 0 0 Z " fill="#3F984F" transform="translate(83,151)"/>
<path d="M0 0 C5.05663427 3.42066436 7.83507897 7.91002391 11 13 C10.01 13.495 10.01 13.495 9 14 C9 13.34 9 12.68 9 12 C8.34 12 7.68 12 7 12 C6.731875 11.401875 6.46375 10.80375 6.1875 10.1875 C5.13430869 7.98271274 5.13430869 7.98271274 3.5 6.5625 C1.60096688 4.5843405 0.90100969 2.56441218 0 0 Z " fill="#438B53" transform="translate(154,49)"/>
<path d="M0 0 C2.08466413 3.38757921 2.42905061 6.05273438 2 10 C1.01 10.66 0.02 11.32 -1 12 C-1.33 9.69 -1.66 7.38 -2 5 C-1.67 5 -1.34 5 -1 5 C-0.67 3.35 -0.34 1.7 0 0 Z " fill="#07260A" transform="translate(40,108)"/>
<path d="M0 0 C0.66 1.32 1.32 2.64 2 4 C1.01 5.485 1.01 5.485 0 7 C-2.97 6.01 -5.94 5.02 -9 4 C-9 3.67 -9 3.34 -9 3 C-6.03 3.33 -3.06 3.66 0 4 C0 2.68 0 1.36 0 0 Z " fill="#3F8D52" transform="translate(79,144)"/>
<path d="M0 0 C0.66 0.66 1.32 1.32 2 2 C0.02 5.96 -1.96 9.92 -4 14 C-4.66 13.67 -5.32 13.34 -6 13 C-5.34 10.36 -4.68 7.72 -4 5 C-3.34 5 -2.68 5 -2 5 C-2 4.34 -2 3.68 -2 3 C-1.34 3 -0.68 3 0 3 C0 2.01 0 1.02 0 0 Z " fill="#439856" transform="translate(45,63)"/>
<path d="M0 0 C0.33 0 0.66 0 1 0 C1.59222907 3.01264352 2.05823431 5.92416977 2 9 C0.0625 11.5625 0.0625 11.5625 -2 13 C-1.48041715 8.62065881 -0.94324258 4.31196609 0 0 Z " fill="#022B06" transform="translate(161,85)"/>
<path d="M0 0 C-3.09423168 3.09423168 -6.5523812 3.93706005 -10.875 4.125 C-11.57625 4.08375 -12.2775 4.0425 -13 4 C-13 3.34 -13 2.68 -13 2 C-4.57142857 -0.28571429 -4.57142857 -0.28571429 0 0 Z " fill="#429353" transform="translate(126,169)"/>
<path d="M0 0 C0.66 0.33 1.32 0.66 2 1 C0.56542672 1.9834496 -0.87277406 2.96160921 -2.3125 3.9375 C-3.11300781 4.48277344 -3.91351563 5.02804688 -4.73828125 5.58984375 C-7 7 -7 7 -10 8 C-10 7.01 -10 6.02 -10 5 C-9.030625 4.71125 -8.06125 4.4225 -7.0625 4.125 C-3.89335797 3.35785318 -3.89335797 3.35785318 -3 1 C-2.01 0.67 -1.02 0.34 0 0 Z " fill="#439558" transform="translate(142,159)"/>
<path d="M0 0 C0.66 0.33 1.32 0.66 2 1 C-0.31 3.31 -2.62 5.62 -5 8 C-5.99 7.34 -6.98 6.68 -8 6 C-5.36 4.02 -2.72 2.04 0 0 Z " fill="#419254" transform="translate(107,76)"/>
<path d="M0 0 C0.721875 0.144375 1.44375 0.28875 2.1875 0.4375 C3.5796875 0.7159375 3.5796875 0.7159375 5 1 C6.66666667 1.33333333 8.33333333 1.66666667 10 2 C10.33 3.32 10.66 4.64 11 6 C6.49197399 4.74194623 3.5087188 3.09592835 0 0 Z " fill="#418D54" transform="translate(59,162)"/>
<path d="M0 0 C0.99 0 1.98 0 3 0 C1.61122646 3.35620271 0.08322035 5.07298728 -3 7 C-3.66 7 -4.32 7 -5 7 C-4.34 5.35 -3.68 3.7 -3 2 C-2.01 2 -1.02 2 0 2 C0 1.34 0 0.68 0 0 Z " fill="#439355" transform="translate(149,152)"/>
<path d="M0 0 C0.99 0.33 1.98 0.66 3 1 C3 1.99 3 2.98 3 4 C3.99 3.67 4.98 3.34 6 3 C6.99 3.99 7.98 4.98 9 6 C7.02 6.33 5.04 6.66 3 7 C0 2.25 0 2.25 0 0 Z " fill="#052008" transform="translate(42,126)"/>
<path d="M0 0 C-5.17578125 3.22265625 -5.17578125 3.22265625 -7 4 C-7.99 3.67 -8.98 3.34 -10 3 C-6.86618053 -0.60389239 -4.59270471 -1.53090157 0 0 Z " fill="#449856" transform="translate(122,146)"/>
<path d="M0 0 C0.66 0.33 1.32 0.66 2 1 C0.71034824 2.37562854 -0.62689293 3.70766393 -2 5 C-2.66 5 -3.32 5 -4 5 C-4.33 5.66 -4.66 6.32 -5 7 C-5.33 5.68 -5.66 4.36 -6 3 C-4.03533587 1.93224776 -2.03144641 0.93446535 0 0 Z " fill="#429251" transform="translate(60,48)"/>
<path d="M0 0 C1.41750563 0.11509661 2.83401169 0.24253658 4.25 0.375 C5.03890625 0.44460937 5.8278125 0.51421875 6.640625 0.5859375 C9.085877 1.01507113 10.84836903 1.78600638 13 3 C13 3.66 13 4.32 13 5 C11.58208592 4.54554036 10.16571954 4.08625056 8.75 3.625 C7.96109375 3.36976562 7.1721875 3.11453125 6.359375 2.8515625 C4.13372042 2.04826333 2.09068328 1.10288338 0 0 Z " fill="#459357" transform="translate(112,27)"/>
<path d="M0 0 C-1.1858237 3.37503669 -2.27573689 5.64722731 -5 8 C-5.1875 5.125 -5.1875 5.125 -5 2 C-2 0 -2 0 0 0 Z " fill="#439556" transform="translate(93,120)"/>
<path d="M0 0 C0.66 0.33 1.32 0.66 2 1 C-0.97 3.475 -0.97 3.475 -4 6 C-4.66 5.01 -5.32 4.02 -6 3 C-4.03533587 1.93224776 -2.03144641 0.93446535 0 0 Z " fill="#419959" transform="translate(135,135)"/>
<path d="M0 0 C-2.31 1.65 -4.62 3.3 -7 5 C-6.67 3.35 -6.34 1.7 -6 0 C-2.25 -1.125 -2.25 -1.125 0 0 Z " fill="#3F9251" transform="translate(122,90)"/>
<path d="M0 0 C-3.99560608 2.83022097 -7.42737323 1.76210446 -12 1 C-12 0.67 -12 0.34 -12 0 C-3.42857143 -1.28571429 -3.42857143 -1.28571429 0 0 Z " fill="#418D50" transform="translate(116,163)"/>
<path d="M0 0 C0.33 0 0.66 0 1 0 C1.36923077 6.52307692 1.36923077 6.52307692 -0.5 8.9375 C-0.995 9.288125 -1.49 9.63875 -2 10 C-1.125 2.25 -1.125 2.25 0 0 Z " fill="#368349" transform="translate(28,78)"/>
<path d="M0 0 C0.33 0.66 0.66 1.32 1 2 C-3.43076923 4.09230769 -3.43076923 4.09230769 -6.3125 3.625 C-6.869375 3.41875 -7.42625 3.2125 -8 3 C-5.08235 1.0549 -3.37462715 0.54723683 0 0 Z " fill="#429553" transform="translate(83,27)"/>
</svg>
