<svg width="1200" height="630" viewBox="0 0 1200 630" fill="none" xmlns="http://www.w3.org/2000/svg">
  <defs>
    <linearGradient id="socialMarkGradient" x1="140" y1="170" x2="230" y2="260" gradientUnits="userSpaceOnUse">
      <stop stop-color="#27C7FF"/>
      <stop offset="1" stop-color="#36F4A0"/>
    </linearGradient>
  </defs>
  <rect width="1200" height="630" fill="#020617"/>
  <rect x="80" y="80" width="1040" height="470" rx="32" fill="#0f172a" stroke="#1e293b"/>
  <rect x="140" y="170" width="90" height="90" rx="22" fill="#060A14"/>
  <path d="M154 216A31 31 0 0 1 216 216" stroke="url(#socialMarkGradient)" stroke-width="9" stroke-linecap="round"/>
  <path d="M166 216A18 18 0 0 1 202 216A18 18 0 0 1 166 216" stroke="url(#socialMarkGradient)" stroke-width="9" stroke-linecap="round"/>
  <path d="M166 223A25 25 0 1 0 209 223" stroke="url(#socialMarkGradient)" stroke-width="9" stroke-linecap="round"/>
  <path d="M165 236V202" stroke="url(#socialMarkGradient)" stroke-width="9" stroke-linecap="round"/>
  <path d="M178 211H188A8 8 0 0 1 188 227H178" stroke="url(#socialMarkGradient)" stroke-width="9" stroke-linecap="round" stroke-linejoin="round"/>
  <text x="260" y="230" fill="#F8FAFC" font-family="Inter, Arial, sans-serif" font-size="72" font-weight="700">Perbug</text>
  <text x="140" y="320" fill="#94A3B8" font-family="Inter, Arial, sans-serif" font-size="34">SHA-256 Coin • Proof of Exploration</text>
  <text x="140" y="374" fill="#CBD5E1" font-family="Inter, Arial, sans-serif" font-size="28">Explore real-world locations. Power a crypto ecosystem.</text>
</svg>
